<svg width="168" height="170" viewBox="0 0 168 170" fill="none" xmlns="http://www.w3.org/2000/svg">
<ellipse cx="84" cy="85" rx="84" ry="85" fill="white"/>
<path d="M95.1466 63.9587C94.4736 61.519 93.0188 59.3674 91.0052 57.8342C88.9917 56.3009 86.5308 55.4705 83.9999 55.4705C81.4691 55.4705 79.0081 56.3009 76.9946 57.8342C74.9811 59.3674 73.5262 61.519 72.8532 63.9587L71.2493 69.7727C70.9614 70.8166 70.9184 71.9129 71.1238 72.9761C71.3292 74.0393 71.7774 75.0407 72.4334 75.9022C73.0895 76.7638 73.9356 77.4621 74.906 77.9428C75.8763 78.4236 76.9445 78.6737 78.0274 78.6737H89.9724C91.0553 78.6737 92.1235 78.4236 93.0939 77.9428C94.0642 77.4621 94.9103 76.7638 95.5664 75.9022C96.2224 75.0407 96.6706 74.0393 96.876 72.9761C97.0814 71.9129 97.0384 70.8166 96.7505 69.7727L95.1466 63.9587ZM93.3289 74.198C92.937 74.7168 92.4296 75.1372 91.847 75.4259C91.2644 75.7146 90.6226 75.8636 89.9724 75.8612H78.0274C77.3777 75.8612 76.7367 75.7112 76.1545 75.4227C75.5723 75.1343 75.0646 74.7152 74.6709 74.1983C74.2773 73.6814 74.0084 73.0805 73.8852 72.4426C73.7619 71.8047 73.7877 71.1469 73.9605 70.5205L75.5643 64.7067C76.0737 62.8603 77.1747 61.2321 78.6985 60.0718C80.2222 58.9114 82.0846 58.2831 83.9999 58.2831C85.9152 58.2831 87.7776 58.9114 89.3014 60.0718C90.8251 61.2321 91.9261 62.8603 92.4355 64.7067L94.0393 70.5205C94.2146 71.1466 94.2416 71.8049 94.1183 72.4433C93.995 73.0817 93.7247 73.6825 93.3289 74.1983V74.198ZM74.3407 57.4314C74.5854 55.9021 74.2609 54.265 73.4267 52.8204C72.5924 51.3758 71.3366 50.2762 69.8902 49.7235C68.3412 49.1319 66.7613 49.2261 65.44 49.9887C62.8132 51.5053 62.1219 55.2432 63.8993 58.3211C64.7333 59.7657 65.9892 60.8656 67.4356 61.4181C68.0763 61.6679 68.7574 61.7981 69.445 61.8022C70.3018 61.8053 71.144 61.5812 71.8859 61.1528C73.2064 60.3902 74.0783 59.0686 74.3407 57.4314ZM71.5634 56.9869C71.4377 57.7716 71.0527 58.3861 70.4794 58.7171C69.9061 59.0481 69.1815 59.0741 68.4389 58.7907C67.594 58.468 66.8467 57.8018 66.3347 56.9149C65.3503 55.2098 65.5843 53.1532 66.8462 52.4244C67.1635 52.2444 67.5227 52.1517 67.8874 52.1556C68.2296 52.1593 68.5682 52.2253 68.8866 52.3505C69.7315 52.6733 70.4787 53.3394 70.9908 54.2263C71.5028 55.1132 71.7061 56.0938 71.5634 56.9869ZM74.6454 51.6049C75.644 52.4032 76.7843 52.8189 77.9376 52.8188C78.283 52.8187 78.6274 52.7815 78.9649 52.708C81.9289 52.0637 83.726 48.714 82.971 45.241C82.6168 43.611 81.7556 42.1809 80.5462 41.214C79.2512 40.1787 77.7171 39.7868 76.2267 40.1109C73.2628 40.7551 71.4657 44.1048 72.2206 47.5778C72.5749 49.2079 73.4361 50.638 74.6454 51.6049ZM76.824 42.8592C76.9607 42.8298 77.1001 42.8151 77.2399 42.8153C77.7627 42.8153 78.3004 43.0198 78.79 43.4113C79.4964 43.976 80.0052 44.8381 80.2226 45.8389C80.641 47.7633 79.7914 49.6506 78.3675 49.9601C77.7206 50.1007 77.0224 49.9049 76.4017 49.4086C75.6953 48.8438 75.1865 47.9817 74.9691 46.981C74.5506 45.0561 75.4002 43.1688 76.824 42.8592ZM102.56 49.9887C101.239 49.2261 99.6583 49.1319 98.1096 49.7235C96.6632 50.2761 95.4073 51.3758 94.5733 52.8204C93.7393 54.265 93.4148 55.9025 93.6593 57.4314C93.9214 59.0686 94.7931 60.3902 96.1141 61.1528C96.856 61.5814 97.6982 61.8055 98.5549 61.8022C99.2426 61.7981 99.9237 61.6679 100.564 61.4181C102.011 60.8656 103.267 59.7657 104.101 58.3211C105.878 55.2432 105.187 51.5053 102.56 49.9887ZM101.665 56.9149C101.153 57.8018 100.406 58.468 99.5609 58.7907C98.8186 59.0744 98.0939 59.0483 97.5206 58.7171C96.9473 58.3859 96.5626 57.7716 96.4366 56.9869C96.2937 56.0938 96.4969 55.1136 97.009 54.2271C97.5212 53.3406 98.2683 52.6741 99.1132 52.3513C99.4316 52.226 99.7702 52.1598 100.112 52.1561C100.477 52.1521 100.836 52.2449 101.154 52.4248C102.416 53.153 102.65 55.2094 101.665 56.9149ZM89.0349 52.708C89.3724 52.7815 89.7168 52.8187 90.0623 52.8188C91.2154 52.8188 92.3562 52.4032 93.3545 51.6049C94.5637 50.6381 95.4249 49.2079 95.7792 47.5779C96.5341 44.1049 94.737 40.7552 91.7731 40.111C90.2828 39.787 88.7486 40.1787 87.4536 41.2141C86.2442 42.1809 85.383 43.6111 85.0288 45.241C84.2739 48.714 86.071 52.0637 89.0349 52.708ZM87.7772 45.8385C87.9946 44.8377 88.5034 43.9752 89.2098 43.4108C89.6995 43.0194 90.2372 42.8149 90.7599 42.8149C90.8997 42.8146 91.0392 42.8294 91.1758 42.8588C92.5997 43.1684 93.4492 45.0561 93.0309 46.98C92.8133 47.9808 92.3045 48.8433 91.5983 49.4077C90.9777 49.9039 90.28 50.0998 89.6325 49.9592C88.2084 49.6501 87.3588 47.7626 87.7772 45.8385Z" fill="#666666"/>
<path d="M29.4698 116.374C29.4698 115.138 29.7458 114.034 30.2978 113.062C30.8618 112.078 31.6238 111.316 32.5838 110.776C33.5558 110.224 34.6418 109.948 35.8418 109.948C37.2458 109.948 38.4758 110.308 39.5318 111.028C40.5878 111.748 41.3258 112.744 41.7458 114.016H38.8478C38.5598 113.416 38.1518 112.966 37.6238 112.666C37.1078 112.366 36.5078 112.216 35.8238 112.216C35.0918 112.216 34.4378 112.39 33.8618 112.738C33.2978 113.074 32.8538 113.554 32.5298 114.178C32.2178 114.802 32.0618 115.534 32.0618 116.374C32.0618 117.202 32.2178 117.934 32.5298 118.57C32.8538 119.194 33.2978 119.68 33.8618 120.028C34.4378 120.364 35.0918 120.532 35.8238 120.532C36.5078 120.532 37.1078 120.382 37.6238 120.082C38.1518 119.77 38.5598 119.314 38.8478 118.714H41.7458C41.3258 119.998 40.5878 121 39.5318 121.72C38.4878 122.428 37.2578 122.782 35.8418 122.782C34.6418 122.782 33.5558 122.512 32.5838 121.972C31.6238 121.42 30.8618 120.658 30.2978 119.686C29.7458 118.714 29.4698 117.61 29.4698 116.374ZM46.4183 114.25C46.7423 113.722 47.1623 113.308 47.6783 113.008C48.2063 112.708 48.8063 112.558 49.4783 112.558V115.204H48.8123C48.0203 115.204 47.4203 115.39 47.0123 115.762C46.6163 116.134 46.4183 116.782 46.4183 117.706V122.674H43.8983V112.702H46.4183V114.25ZM60.5896 112.702V122.674H58.0516V121.414C57.7276 121.846 57.3016 122.188 56.7736 122.44C56.2576 122.68 55.6936 122.8 55.0816 122.8C54.3016 122.8 53.6116 122.638 53.0116 122.314C52.4116 121.978 51.9376 121.492 51.5896 120.856C51.2536 120.208 51.0856 119.44 51.0856 118.552V112.702H53.6056V118.192C53.6056 118.984 53.8036 119.596 54.1996 120.028C54.5956 120.448 55.1356 120.658 55.8196 120.658C56.5156 120.658 57.0616 120.448 57.4576 120.028C57.8536 119.596 58.0516 118.984 58.0516 118.192V112.702H60.5896ZM72.346 117.472C72.346 117.832 72.322 118.156 72.274 118.444H64.984C65.044 119.164 65.296 119.728 65.74 120.136C66.184 120.544 66.73 120.748 67.378 120.748C68.314 120.748 68.98 120.346 69.376 119.542H72.094C71.806 120.502 71.254 121.294 70.438 121.918C69.622 122.53 68.62 122.836 67.432 122.836C66.472 122.836 65.608 122.626 64.84 122.206C64.084 121.774 63.49 121.168 63.058 120.388C62.638 119.608 62.428 118.708 62.428 117.688C62.428 116.656 62.638 115.75 63.058 114.97C63.478 114.19 64.066 113.59 64.822 113.17C65.578 112.75 66.448 112.54 67.432 112.54C68.38 112.54 69.226 112.744 69.97 113.152C70.726 113.56 71.308 114.142 71.716 114.898C72.136 115.642 72.346 116.5 72.346 117.472ZM69.736 116.752C69.724 116.104 69.49 115.588 69.034 115.204C68.578 114.808 68.02 114.61 67.36 114.61C66.736 114.61 66.208 114.802 65.776 115.186C65.356 115.558 65.098 116.08 65.002 116.752H69.736ZM76.7054 109.354V122.674H74.1854V109.354H76.7054ZM82.1291 114.772V119.596C82.1291 119.932 82.2071 120.178 82.3631 120.334C82.5311 120.478 82.8071 120.55 83.1911 120.55H84.3611V122.674H82.7771C80.6531 122.674 79.5911 121.642 79.5911 119.578V114.772H78.4031V112.702H79.5911V110.236H82.1291V112.702H84.3611V114.772H82.1291ZM95.7136 112.702L89.5396 127.39H86.8576L89.0176 122.422L85.0216 112.702H87.8476L90.4216 119.668L93.0316 112.702H95.7136ZM109.119 110.11V112.144H103.881V115.366H107.895V117.364H103.881V122.674H101.361V110.11H109.119ZM113.426 114.25C113.75 113.722 114.17 113.308 114.686 113.008C115.214 112.708 115.814 112.558 116.486 112.558V115.204H115.82C115.028 115.204 114.428 115.39 114.02 115.762C113.624 116.134 113.426 116.782 113.426 117.706V122.674H110.906V112.702H113.426V114.25ZM127.453 117.472C127.453 117.832 127.429 118.156 127.381 118.444H120.091C120.151 119.164 120.403 119.728 120.847 120.136C121.291 120.544 121.837 120.748 122.485 120.748C123.421 120.748 124.087 120.346 124.483 119.542H127.201C126.913 120.502 126.361 121.294 125.545 121.918C124.729 122.53 123.727 122.836 122.539 122.836C121.579 122.836 120.715 122.626 119.947 122.206C119.191 121.774 118.597 121.168 118.165 120.388C117.745 119.608 117.535 118.708 117.535 117.688C117.535 116.656 117.745 115.75 118.165 114.97C118.585 114.19 119.173 113.59 119.929 113.17C120.685 112.75 121.555 112.54 122.539 112.54C123.487 112.54 124.333 112.744 125.077 113.152C125.833 113.56 126.415 114.142 126.823 114.898C127.243 115.642 127.453 116.5 127.453 117.472ZM124.843 116.752C124.831 116.104 124.597 115.588 124.141 115.204C123.685 114.808 123.127 114.61 122.467 114.61C121.843 114.61 121.315 114.802 120.883 115.186C120.463 115.558 120.205 116.08 120.109 116.752H124.843ZM138.563 117.472C138.563 117.832 138.539 118.156 138.491 118.444H131.201C131.261 119.164 131.513 119.728 131.957 120.136C132.401 120.544 132.947 120.748 133.595 120.748C134.531 120.748 135.197 120.346 135.593 119.542H138.311C138.023 120.502 137.471 121.294 136.655 121.918C135.839 122.53 134.837 122.836 133.649 122.836C132.689 122.836 131.825 122.626 131.057 122.206C130.301 121.774 129.707 121.168 129.275 120.388C128.855 119.608 128.645 118.708 128.645 117.688C128.645 116.656 128.855 115.75 129.275 114.97C129.695 114.19 130.283 113.59 131.039 113.17C131.795 112.75 132.665 112.54 133.649 112.54C134.597 112.54 135.443 112.744 136.187 113.152C136.943 113.56 137.525 114.142 137.933 114.898C138.353 115.642 138.563 116.5 138.563 117.472ZM135.953 116.752C135.941 116.104 135.707 115.588 135.251 115.204C134.795 114.808 134.237 114.61 133.577 114.61C132.953 114.61 132.425 114.802 131.993 115.186C131.573 115.558 131.315 116.08 131.219 116.752H135.953Z" fill="#C16F59"/>
</svg>
