<svg width="168" height="170" viewBox="0 0 168 170" fill="none" xmlns="http://www.w3.org/2000/svg">
<ellipse cx="84" cy="85" rx="84" ry="85" fill="white"/>
<path d="M103.525 75.3531L89.6252 52.1922V42.8125H91.0315C91.8049 42.8125 92.4377 42.1797 92.4377 41.4062C92.4377 40.6328 91.8049 40 91.0315 40H76.969C76.1956 40 75.5627 40.6328 75.5627 41.4062C75.5627 42.1797 76.1956 42.8125 76.969 42.8125H78.3752V52.1922L64.4759 75.3531C61.2921 80.6575 63.7502 85 69.9377 85H98.0627C104.25 85 106.708 80.6603 103.525 75.3531ZM72.0921 68.125L81.1877 52.9656V42.8125H86.8127V52.9656L95.9084 68.125H72.0921Z" fill="#666666"/>
<path d="M40.1956 119.002H44.3356V121H37.6756V108.436H40.1956V119.002ZM45.2893 115.978C45.2893 114.97 45.4873 114.076 45.8833 113.296C46.2913 112.516 46.8373 111.916 47.5213 111.496C48.2173 111.076 48.9913 110.866 49.8433 110.866C50.5873 110.866 51.2353 111.016 51.7873 111.316C52.3513 111.616 52.8013 111.994 53.1373 112.45V111.028H55.6753V121H53.1373V119.542C52.8133 120.01 52.3633 120.4 51.7873 120.712C51.2233 121.012 50.5693 121.162 49.8253 121.162C48.9853 121.162 48.2173 120.946 47.5213 120.514C46.8373 120.082 46.2913 119.476 45.8833 118.696C45.4873 117.904 45.2893 116.998 45.2893 115.978ZM53.1373 116.014C53.1373 115.402 53.0173 114.88 52.7773 114.448C52.5373 114.004 52.2133 113.668 51.8053 113.44C51.3973 113.2 50.9593 113.08 50.4913 113.08C50.0233 113.08 49.5913 113.194 49.1953 113.422C48.7993 113.65 48.4753 113.986 48.2233 114.43C47.9833 114.862 47.8633 115.378 47.8633 115.978C47.8633 116.578 47.9833 117.106 48.2233 117.562C48.4753 118.006 48.7993 118.348 49.1953 118.588C49.6033 118.828 50.0353 118.948 50.4913 118.948C50.9593 118.948 51.3973 118.834 51.8053 118.606C52.2133 118.366 52.5373 118.03 52.7773 117.598C53.0173 117.154 53.1373 116.626 53.1373 116.014ZM60.6565 112.486C60.9805 112.006 61.4245 111.616 61.9885 111.316C62.5645 111.016 63.2185 110.866 63.9505 110.866C64.8025 110.866 65.5705 111.076 66.2545 111.496C66.9505 111.916 67.4965 112.516 67.8925 113.296C68.3005 114.064 68.5045 114.958 68.5045 115.978C68.5045 116.998 68.3005 117.904 67.8925 118.696C67.4965 119.476 66.9505 120.082 66.2545 120.514C65.5705 120.946 64.8025 121.162 63.9505 121.162C63.2065 121.162 62.5525 121.018 61.9885 120.73C61.4365 120.43 60.9925 120.046 60.6565 119.578V121H58.1365V107.68H60.6565V112.486ZM65.9305 115.978C65.9305 115.378 65.8045 114.862 65.5525 114.43C65.3125 113.986 64.9885 113.65 64.5805 113.422C64.1845 113.194 63.7525 113.08 63.2845 113.08C62.8285 113.08 62.3965 113.2 61.9885 113.44C61.5925 113.668 61.2685 114.004 61.0165 114.448C60.7765 114.892 60.6565 115.414 60.6565 116.014C60.6565 116.614 60.7765 117.136 61.0165 117.58C61.2685 118.024 61.5925 118.366 61.9885 118.606C62.3965 118.834 62.8285 118.948 63.2845 118.948C63.7525 118.948 64.1845 118.828 64.5805 118.588C64.9885 118.348 65.3125 118.006 65.5525 117.562C65.8045 117.118 65.9305 116.59 65.9305 115.978ZM77.5588 113.098V117.922C77.5588 118.258 77.6368 118.504 77.7928 118.66C77.9608 118.804 78.2368 118.876 78.6208 118.876H79.7908V121H78.2068C76.0828 121 75.0208 119.968 75.0208 117.904V113.098H73.8328V111.028H75.0208V108.562H77.5588V111.028H79.7908V113.098H77.5588ZM90.8733 115.798C90.8733 116.158 90.8493 116.482 90.8013 116.77H83.5113C83.5713 117.49 83.8233 118.054 84.2673 118.462C84.7113 118.87 85.2573 119.074 85.9053 119.074C86.8413 119.074 87.5073 118.672 87.9033 117.868H90.6213C90.3333 118.828 89.7813 119.62 88.9653 120.244C88.1493 120.856 87.1473 121.162 85.9593 121.162C84.9993 121.162 84.1353 120.952 83.3673 120.532C82.6113 120.1 82.0173 119.494 81.5853 118.714C81.1653 117.934 80.9553 117.034 80.9553 116.014C80.9553 114.982 81.1653 114.076 81.5853 113.296C82.0053 112.516 82.5933 111.916 83.3493 111.496C84.1053 111.076 84.9753 110.866 85.9593 110.866C86.9073 110.866 87.7533 111.07 88.4973 111.478C89.2533 111.886 89.8353 112.468 90.2433 113.224C90.6633 113.968 90.8733 114.826 90.8733 115.798ZM88.2633 115.078C88.2513 114.43 88.0173 113.914 87.5613 113.53C87.1053 113.134 86.5473 112.936 85.8873 112.936C85.2633 112.936 84.7353 113.128 84.3033 113.512C83.8833 113.884 83.6253 114.406 83.5293 115.078H88.2633ZM96.5287 121.162C95.7127 121.162 94.9807 121.018 94.3327 120.73C93.6847 120.43 93.1687 120.028 92.7847 119.524C92.4127 119.02 92.2087 118.462 92.1727 117.85H94.7107C94.7587 118.234 94.9447 118.552 95.2687 118.804C95.6047 119.056 96.0187 119.182 96.5107 119.182C96.9907 119.182 97.3627 119.086 97.6267 118.894C97.9027 118.702 98.0407 118.456 98.0407 118.156C98.0407 117.832 97.8727 117.592 97.5367 117.436C97.2127 117.268 96.6907 117.088 95.9707 116.896C95.2267 116.716 94.6147 116.53 94.1347 116.338C93.6667 116.146 93.2587 115.852 92.9107 115.456C92.5747 115.06 92.4067 114.526 92.4067 113.854C92.4067 113.302 92.5627 112.798 92.8747 112.342C93.1987 111.886 93.6547 111.526 94.2427 111.262C94.8427 110.998 95.5447 110.866 96.3487 110.866C97.5367 110.866 98.4847 111.166 99.1927 111.766C99.9007 112.354 100.291 113.152 100.363 114.16H97.9507C97.9147 113.764 97.7467 113.452 97.4467 113.224C97.1587 112.984 96.7687 112.864 96.2767 112.864C95.8207 112.864 95.4667 112.948 95.2147 113.116C94.9747 113.284 94.8547 113.518 94.8547 113.818C94.8547 114.154 95.0227 114.412 95.3587 114.592C95.6947 114.76 96.2167 114.934 96.9247 115.114C97.6447 115.294 98.2387 115.48 98.7067 115.672C99.1747 115.864 99.5767 116.164 99.9127 116.572C100.261 116.968 100.441 117.496 100.453 118.156C100.453 118.732 100.291 119.248 99.9667 119.704C99.6547 120.16 99.1987 120.52 98.5987 120.784C98.0107 121.036 97.3207 121.162 96.5287 121.162ZM105.455 113.098V117.922C105.455 118.258 105.533 118.504 105.689 118.66C105.857 118.804 106.133 118.876 106.517 118.876H107.687V121H106.103C103.979 121 102.917 119.968 102.917 117.904V113.098H101.729V111.028H102.917V108.562H105.455V111.028H107.687V113.098H105.455ZM118.77 115.798C118.77 116.158 118.746 116.482 118.698 116.77H111.408C111.468 117.49 111.72 118.054 112.164 118.462C112.608 118.87 113.154 119.074 113.802 119.074C114.738 119.074 115.404 118.672 115.8 117.868H118.518C118.23 118.828 117.678 119.62 116.862 120.244C116.046 120.856 115.044 121.162 113.856 121.162C112.896 121.162 112.032 120.952 111.264 120.532C110.508 120.1 109.914 119.494 109.482 118.714C109.062 117.934 108.852 117.034 108.852 116.014C108.852 114.982 109.062 114.076 109.482 113.296C109.902 112.516 110.49 111.916 111.246 111.496C112.002 111.076 112.872 110.866 113.856 110.866C114.804 110.866 115.65 111.07 116.394 111.478C117.15 111.886 117.732 112.468 118.14 113.224C118.56 113.968 118.77 114.826 118.77 115.798ZM116.16 115.078C116.148 114.43 115.914 113.914 115.458 113.53C115.002 113.134 114.444 112.936 113.784 112.936C113.16 112.936 112.632 113.128 112.2 113.512C111.78 113.884 111.522 114.406 111.426 115.078H116.16ZM119.961 115.978C119.961 114.97 120.159 114.076 120.555 113.296C120.963 112.516 121.515 111.916 122.211 111.496C122.907 111.076 123.681 110.866 124.533 110.866C125.181 110.866 125.799 111.01 126.387 111.298C126.975 111.574 127.443 111.946 127.791 112.414V107.68H130.347V121H127.791V119.524C127.479 120.016 127.041 120.412 126.477 120.712C125.913 121.012 125.259 121.162 124.515 121.162C123.675 121.162 122.907 120.946 122.211 120.514C121.515 120.082 120.963 119.476 120.555 118.696C120.159 117.904 119.961 116.998 119.961 115.978ZM127.809 116.014C127.809 115.402 127.689 114.88 127.449 114.448C127.209 114.004 126.885 113.668 126.477 113.44C126.069 113.2 125.631 113.08 125.163 113.08C124.695 113.08 124.263 113.194 123.867 113.422C123.471 113.65 123.147 113.986 122.895 114.43C122.655 114.862 122.535 115.378 122.535 115.978C122.535 116.578 122.655 117.106 122.895 117.562C123.147 118.006 123.471 118.348 123.867 118.588C124.275 118.828 124.707 118.948 125.163 118.948C125.631 118.948 126.069 118.834 126.477 118.606C126.885 118.366 127.209 118.03 127.449 117.598C127.689 117.154 127.809 116.626 127.809 116.014Z" fill="#C16F59"/>
</svg>
