<svg width="168" height="170" viewBox="0 0 168 170" fill="none" xmlns="http://www.w3.org/2000/svg">
<ellipse cx="84" cy="85" rx="84" ry="85" fill="white"/>
<path d="M83.2969 78.6719H76.9688V81.4844H92.4375V78.6719H86.1094V68.0343L101.578 51.0923V47.0312H67.8281V51.0923L83.2969 68.0343V78.6719ZM70.6406 50.0014V49.8438H98.7656V50.0014L94.4157 54.7656H74.9905L70.6406 50.0014ZM77.5584 57.5781H91.8478L84.7859 65.3125H84.6203L77.5584 57.5781Z" fill="#666666"/>
<path d="M47.5339 121H45.0139L39.3079 112.378V121H36.7879V108.418H39.3079L45.0139 117.058V108.418H47.5339V121ZM54.4522 121.162C53.4922 121.162 52.6282 120.952 51.8602 120.532C51.0922 120.1 50.4862 119.494 50.0422 118.714C49.6102 117.934 49.3942 117.034 49.3942 116.014C49.3942 114.994 49.6162 114.094 50.0602 113.314C50.5162 112.534 51.1342 111.934 51.9142 111.514C52.6942 111.082 53.5642 110.866 54.5242 110.866C55.4842 110.866 56.3542 111.082 57.1342 111.514C57.9142 111.934 58.5262 112.534 58.9702 113.314C59.4262 114.094 59.6542 114.994 59.6542 116.014C59.6542 117.034 59.4202 117.934 58.9522 118.714C58.4962 119.494 57.8722 120.1 57.0802 120.532C56.3002 120.952 55.4242 121.162 54.4522 121.162ZM54.4522 118.966C54.9082 118.966 55.3342 118.858 55.7302 118.642C56.1382 118.414 56.4622 118.078 56.7022 117.634C56.9422 117.19 57.0622 116.65 57.0622 116.014C57.0622 115.066 56.8102 114.34 56.3062 113.836C55.8142 113.32 55.2082 113.062 54.4882 113.062C53.7682 113.062 53.1622 113.32 52.6702 113.836C52.1902 114.34 51.9502 115.066 51.9502 116.014C51.9502 116.962 52.1842 117.694 52.6522 118.21C53.1322 118.714 53.7322 118.966 54.4522 118.966ZM65.1438 115.978C65.1438 114.97 65.3418 114.076 65.7378 113.296C66.1458 112.516 66.6918 111.916 67.3758 111.496C68.0718 111.076 68.8458 110.866 69.6978 110.866C70.4418 110.866 71.0898 111.016 71.6418 111.316C72.2058 111.616 72.6558 111.994 72.9918 112.45V111.028H75.5298V121H72.9918V119.542C72.6678 120.01 72.2178 120.4 71.6418 120.712C71.0778 121.012 70.4238 121.162 69.6798 121.162C68.8398 121.162 68.0718 120.946 67.3758 120.514C66.6918 120.082 66.1458 119.476 65.7378 118.696C65.3418 117.904 65.1438 116.998 65.1438 115.978ZM72.9918 116.014C72.9918 115.402 72.8718 114.88 72.6318 114.448C72.3918 114.004 72.0678 113.668 71.6598 113.44C71.2518 113.2 70.8138 113.08 70.3458 113.08C69.8778 113.08 69.4458 113.194 69.0498 113.422C68.6538 113.65 68.3298 113.986 68.0778 114.43C67.8378 114.862 67.7178 115.378 67.7178 115.978C67.7178 116.578 67.8378 117.106 68.0778 117.562C68.3298 118.006 68.6538 118.348 69.0498 118.588C69.4578 118.828 69.8898 118.948 70.3458 118.948C70.8138 118.948 71.2518 118.834 71.6598 118.606C72.0678 118.366 72.3918 118.03 72.6318 117.598C72.8718 117.154 72.9918 116.626 72.9918 116.014ZM80.511 107.68V121H77.991V107.68H80.511ZM82.3528 116.014C82.3528 114.982 82.5628 114.082 82.9828 113.314C83.4028 112.534 83.9848 111.934 84.7288 111.514C85.4728 111.082 86.3248 110.866 87.2848 110.866C88.5208 110.866 89.5408 111.178 90.3448 111.802C91.1608 112.414 91.7068 113.278 91.9828 114.394H89.2648C89.1208 113.962 88.8748 113.626 88.5268 113.386C88.1908 113.134 87.7708 113.008 87.2668 113.008C86.5468 113.008 85.9768 113.272 85.5568 113.8C85.1368 114.316 84.9268 115.054 84.9268 116.014C84.9268 116.962 85.1368 117.7 85.5568 118.228C85.9768 118.744 86.5468 119.002 87.2668 119.002C88.2868 119.002 88.9528 118.546 89.2648 117.634H91.9828C91.7068 118.714 91.1608 119.572 90.3448 120.208C89.5288 120.844 88.5088 121.162 87.2848 121.162C86.3248 121.162 85.4728 120.952 84.7288 120.532C83.9848 120.1 83.4028 119.5 82.9828 118.732C82.5628 117.952 82.3528 117.046 82.3528 116.014ZM98.2569 121.162C97.2969 121.162 96.4329 120.952 95.6649 120.532C94.8969 120.1 94.2909 119.494 93.8469 118.714C93.4149 117.934 93.1989 117.034 93.1989 116.014C93.1989 114.994 93.4209 114.094 93.8649 113.314C94.3209 112.534 94.9389 111.934 95.7189 111.514C96.4989 111.082 97.3689 110.866 98.3289 110.866C99.2889 110.866 100.159 111.082 100.939 111.514C101.719 111.934 102.331 112.534 102.775 113.314C103.231 114.094 103.459 114.994 103.459 116.014C103.459 117.034 103.225 117.934 102.757 118.714C102.301 119.494 101.677 120.1 100.885 120.532C100.105 120.952 99.2289 121.162 98.2569 121.162ZM98.2569 118.966C98.7129 118.966 99.1389 118.858 99.5349 118.642C99.9429 118.414 100.267 118.078 100.507 117.634C100.747 117.19 100.867 116.65 100.867 116.014C100.867 115.066 100.615 114.34 100.111 113.836C99.6189 113.32 99.0129 113.062 98.2929 113.062C97.5729 113.062 96.9669 113.32 96.4749 113.836C95.9949 114.34 95.7549 115.066 95.7549 116.014C95.7549 116.962 95.9889 117.694 96.4569 118.21C96.9369 118.714 97.5369 118.966 98.2569 118.966ZM110.923 110.884C111.679 110.884 112.351 111.052 112.939 111.388C113.527 111.712 113.983 112.198 114.307 112.846C114.643 113.482 114.811 114.25 114.811 115.15V121H112.291V115.492C112.291 114.7 112.093 114.094 111.697 113.674C111.301 113.242 110.761 113.026 110.077 113.026C109.381 113.026 108.829 113.242 108.421 113.674C108.025 114.094 107.827 114.7 107.827 115.492V121H105.307V107.68H107.827V112.27C108.151 111.838 108.583 111.502 109.123 111.262C109.663 111.01 110.263 110.884 110.923 110.884ZM121.636 121.162C120.676 121.162 119.812 120.952 119.044 120.532C118.276 120.1 117.67 119.494 117.226 118.714C116.794 117.934 116.578 117.034 116.578 116.014C116.578 114.994 116.8 114.094 117.244 113.314C117.7 112.534 118.318 111.934 119.098 111.514C119.878 111.082 120.748 110.866 121.708 110.866C122.668 110.866 123.538 111.082 124.318 111.514C125.098 111.934 125.71 112.534 126.154 113.314C126.61 114.094 126.838 114.994 126.838 116.014C126.838 117.034 126.604 117.934 126.136 118.714C125.68 119.494 125.056 120.1 124.264 120.532C123.484 120.952 122.608 121.162 121.636 121.162ZM121.636 118.966C122.092 118.966 122.518 118.858 122.914 118.642C123.322 118.414 123.646 118.078 123.886 117.634C124.126 117.19 124.246 116.65 124.246 116.014C124.246 115.066 123.994 114.34 123.49 113.836C122.998 113.32 122.392 113.062 121.672 113.062C120.952 113.062 120.346 113.32 119.854 113.836C119.374 114.34 119.134 115.066 119.134 116.014C119.134 116.962 119.368 117.694 119.836 118.21C120.316 118.714 120.916 118.966 121.636 118.966ZM131.206 107.68V121H128.686V107.68H131.206Z" fill="#C16F59"/>
</svg>
