<svg width="168" height="170" viewBox="0 0 168 170" fill="none" xmlns="http://www.w3.org/2000/svg">
<ellipse cx="84" cy="85" rx="84" ry="85" fill="white"/>
<g clip-path="url(#clip0_1704_142)">
<path d="M80.0839 40.0007L66.0757 46.502C64.4118 47.4105 64.9765 48.9272 67.2727 50.2917L78.0426 56.6433C78.2831 57.8233 77.4723 59.1435 76.2506 59.3626C72.465 57.1612 68.7343 54.8626 64.9139 52.7247C60.6222 51.3571 61.5972 55.3953 61.5909 57.7371L62.4473 69.2859C62.6892 71.0153 64.2998 71.0994 66.3473 69.866L75.0886 64.6457C76.1094 65.0369 77.1096 66.1755 77.0758 67.3076L66.5865 73.6016C65.7239 74.3357 65.6278 75.955 66.7301 76.5222C70.8107 79.3409 74.8946 82.1645 79.0121 84.9242C80.2954 85.3019 81.7863 84.2148 81.6823 82.8641L81.8973 69.7303C82.7585 68.7307 84.487 68.7756 85.4288 69.7336L85.2894 82.6844C85.4725 85.2953 88.3252 85.0082 90.1805 83.5785L100.836 76.378C102.85 74.6124 101.151 73.5326 99.7461 72.7297L90.6496 67.7343C90.4397 66.5298 91.0582 65.0209 92.3673 64.7507L102.817 70.6312C103.682 70.9866 105.147 70.9619 105.115 69.6536C105.667 64.4891 106.172 58.7534 106.444 54.0782C105.974 52.8612 104.267 52.3738 103.171 53.063L91.6208 59.4511C90.8595 58.8466 88.9355 57.3258 90.5767 56.511L101.561 50.4118C103.779 48.8772 102.027 46.8607 100.376 46.026L88.1124 40.1804C85.8253 39.7605 85.65 40.9631 85.5269 42.3635L85.5843 53.3398C84.6623 54.1513 83.1009 54.16 82.2255 53.2886L82.2003 41.7512C81.9123 40.8583 81.09 39.9737 80.0839 40.0006M78.1262 46.0423C78.1639 47.6981 78.2017 49.3541 78.2397 51.01L73.4387 48.1766C74.9991 47.3695 76.5593 46.5619 78.1196 45.7547L78.1262 46.0423ZM94.7015 48.4256L89.7115 51.1581L89.8827 46.0074L94.7015 48.4256ZM86.9625 61.5284C87.3225 61.8286 86.8119 62.157 86.5713 62.3053C85.7486 63.0319 85.4604 64.1622 85.4503 65.2168C84.7829 64.2545 83.23 63.8945 82.3506 64.7684C82.0304 65.0084 81.9261 64.4211 81.9579 64.1712C81.8635 63.1353 81.1416 62.2985 80.3177 61.7224C81.2104 61.2023 81.9976 60.3812 82.0882 59.3121C82.3853 58.9713 82.7361 59.3114 83.1016 59.5331C84.0481 59.8082 85.0581 59.5591 85.9194 59.1361C85.3934 60.3371 86.131 61.2309 86.9625 61.5284ZM71.2197 62.3255L66.6613 64.7824L66.3698 59.4439L71.2197 62.3255ZM101.073 64.9714L96.2598 62.5471L101.291 59.7734L101.073 64.9714ZM76.7842 77.7675L72.3485 74.9884L76.8706 71.9522L76.7842 77.7675ZM94.9685 74.9328L90.4407 77.8473L90.542 72.1946L94.9685 74.9328Z" fill="#666666"/>
</g>
<path d="M51.3835 121H48.8635L43.1575 112.378V121H40.6375V108.418H43.1575L48.8635 117.058V108.418H51.3835V121ZM58.3018 121.162C57.3418 121.162 56.4778 120.952 55.7098 120.532C54.9418 120.1 54.3358 119.494 53.8918 118.714C53.4598 117.934 53.2438 117.034 53.2438 116.014C53.2438 114.994 53.4658 114.094 53.9098 113.314C54.3658 112.534 54.9838 111.934 55.7638 111.514C56.5438 111.082 57.4138 110.866 58.3738 110.866C59.3338 110.866 60.2038 111.082 60.9838 111.514C61.7638 111.934 62.3758 112.534 62.8198 113.314C63.2758 114.094 63.5038 114.994 63.5038 116.014C63.5038 117.034 63.2698 117.934 62.8018 118.714C62.3458 119.494 61.7218 120.1 60.9298 120.532C60.1498 120.952 59.2738 121.162 58.3018 121.162ZM58.3018 118.966C58.7578 118.966 59.1838 118.858 59.5798 118.642C59.9878 118.414 60.3118 118.078 60.5518 117.634C60.7918 117.19 60.9118 116.65 60.9118 116.014C60.9118 115.066 60.6598 114.34 60.1558 113.836C59.6638 113.32 59.0578 113.062 58.3378 113.062C57.6178 113.062 57.0118 113.32 56.5198 113.836C56.0398 114.34 55.7998 115.066 55.7998 116.014C55.7998 116.962 56.0338 117.694 56.5018 118.21C56.9818 118.714 57.5818 118.966 58.3018 118.966ZM73.9794 121.126C73.1034 121.126 72.3114 120.976 71.6034 120.676C70.9074 120.376 70.3554 119.944 69.9474 119.38C69.5394 118.816 69.3294 118.15 69.3174 117.382H72.0174C72.0534 117.898 72.2334 118.306 72.5574 118.606C72.8934 118.906 73.3494 119.056 73.9254 119.056C74.5134 119.056 74.9754 118.918 75.3114 118.642C75.6474 118.354 75.8154 117.982 75.8154 117.526C75.8154 117.154 75.7014 116.848 75.4734 116.608C75.2454 116.368 74.9574 116.182 74.6094 116.05C74.2734 115.906 73.8054 115.75 73.2054 115.582C72.3894 115.342 71.7234 115.108 71.2074 114.88C70.7034 114.64 70.2654 114.286 69.8934 113.818C69.5334 113.338 69.3534 112.702 69.3534 111.91C69.3534 111.166 69.5394 110.518 69.9114 109.966C70.2834 109.414 70.8054 108.994 71.4774 108.706C72.1494 108.406 72.9174 108.256 73.7814 108.256C75.0774 108.256 76.1274 108.574 76.9314 109.21C77.7474 109.834 78.1974 110.71 78.2814 111.838H75.5094C75.4854 111.406 75.2994 111.052 74.9514 110.776C74.6154 110.488 74.1654 110.344 73.6014 110.344C73.1094 110.344 72.7134 110.47 72.4134 110.722C72.1254 110.974 71.9814 111.34 71.9814 111.82C71.9814 112.156 72.0894 112.438 72.3054 112.666C72.5334 112.882 72.8094 113.062 73.1334 113.206C73.4694 113.338 73.9374 113.494 74.5374 113.674C75.3534 113.914 76.0194 114.154 76.5354 114.394C77.0514 114.634 77.4954 114.994 77.8674 115.474C78.2394 115.954 78.4254 116.584 78.4254 117.364C78.4254 118.036 78.2514 118.66 77.9034 119.236C77.5554 119.812 77.0454 120.274 76.3734 120.622C75.7014 120.958 74.9034 121.126 73.9794 121.126ZM81.8882 109.84C81.4442 109.84 81.0722 109.702 80.7722 109.426C80.4842 109.138 80.3402 108.784 80.3402 108.364C80.3402 107.944 80.4842 107.596 80.7722 107.32C81.0722 107.032 81.4442 106.888 81.8882 106.888C82.3322 106.888 82.6982 107.032 82.9862 107.32C83.2862 107.596 83.4362 107.944 83.4362 108.364C83.4362 108.784 83.2862 109.138 82.9862 109.426C82.6982 109.702 82.3322 109.84 81.8882 109.84ZM83.1302 111.028V121H80.6102V111.028H83.1302ZM88.1399 107.68V121H85.6199V107.68H88.1399ZM91.9077 109.84C91.4637 109.84 91.0917 109.702 90.7917 109.426C90.5037 109.138 90.3597 108.784 90.3597 108.364C90.3597 107.944 90.5037 107.596 90.7917 107.32C91.0917 107.032 91.4637 106.888 91.9077 106.888C92.3517 106.888 92.7177 107.032 93.0057 107.32C93.3057 107.596 93.4557 107.944 93.4557 108.364C93.4557 108.784 93.3057 109.138 93.0057 109.426C92.7177 109.702 92.3517 109.84 91.9077 109.84ZM93.1497 111.028V121H90.6297V111.028H93.1497ZM94.9915 116.014C94.9915 114.982 95.2015 114.082 95.6215 113.314C96.0415 112.534 96.6235 111.934 97.3675 111.514C98.1115 111.082 98.9635 110.866 99.9235 110.866C101.159 110.866 102.179 111.178 102.983 111.802C103.799 112.414 104.345 113.278 104.621 114.394H101.903C101.759 113.962 101.513 113.626 101.165 113.386C100.829 113.134 100.409 113.008 99.9055 113.008C99.1855 113.008 98.6155 113.272 98.1955 113.8C97.7755 114.316 97.5655 115.054 97.5655 116.014C97.5655 116.962 97.7755 117.7 98.1955 118.228C98.6155 118.744 99.1855 119.002 99.9055 119.002C100.925 119.002 101.591 118.546 101.903 117.634H104.621C104.345 118.714 103.799 119.572 102.983 120.208C102.167 120.844 101.147 121.162 99.9235 121.162C98.9635 121.162 98.1115 120.952 97.3675 120.532C96.6235 120.1 96.0415 119.5 95.6215 118.732C95.2015 117.952 94.9915 117.046 94.9915 116.014ZM110.896 121.162C109.936 121.162 109.072 120.952 108.304 120.532C107.536 120.1 106.93 119.494 106.486 118.714C106.054 117.934 105.838 117.034 105.838 116.014C105.838 114.994 106.06 114.094 106.504 113.314C106.96 112.534 107.578 111.934 108.358 111.514C109.138 111.082 110.008 110.866 110.968 110.866C111.928 110.866 112.798 111.082 113.578 111.514C114.358 111.934 114.97 112.534 115.414 113.314C115.87 114.094 116.098 114.994 116.098 116.014C116.098 117.034 115.864 117.934 115.396 118.714C114.94 119.494 114.316 120.1 113.524 120.532C112.744 120.952 111.868 121.162 110.896 121.162ZM110.896 118.966C111.352 118.966 111.778 118.858 112.174 118.642C112.582 118.414 112.906 118.078 113.146 117.634C113.386 117.19 113.506 116.65 113.506 116.014C113.506 115.066 113.254 114.34 112.75 113.836C112.258 113.32 111.652 113.062 110.932 113.062C110.212 113.062 109.606 113.32 109.114 113.836C108.634 114.34 108.394 115.066 108.394 116.014C108.394 116.962 108.628 117.694 109.096 118.21C109.576 118.714 110.176 118.966 110.896 118.966ZM123.472 110.884C124.66 110.884 125.62 111.262 126.352 112.018C127.084 112.762 127.45 113.806 127.45 115.15V121H124.93V115.492C124.93 114.7 124.732 114.094 124.336 113.674C123.94 113.242 123.4 113.026 122.716 113.026C122.02 113.026 121.468 113.242 121.06 113.674C120.664 114.094 120.466 114.7 120.466 115.492V121H117.946V111.028H120.466V112.27C120.802 111.838 121.228 111.502 121.744 111.262C122.272 111.01 122.848 110.884 123.472 110.884Z" fill="#C16F59"/>
<defs>
<clipPath id="clip0_1704_142">
<rect width="45" height="45" fill="white" transform="translate(61.5 40)"/>
</clipPath>
</defs>
</svg>
