<svg width="168" height="170" viewBox="0 0 168 170" fill="none" xmlns="http://www.w3.org/2000/svg">
<ellipse cx="84" cy="85" rx="84" ry="85" fill="white"/>
<path d="M97.9638 41.8128L97.3841 42.4171L96.8432 42.9774L103.213 49.3468L103.781 48.7892L104.371 48.2096L103.784 47.6246L98.5568 42.4034L97.9635 41.8127L97.9638 41.8128ZM94.2339 42.6917L91.3364 45.5867L100.425 54.6752L103.32 51.7774L94.2339 42.6917ZM80.7675 47.8114C80.6665 47.8114 80.5663 47.8125 80.4652 47.814C76.0388 47.8859 71.6382 49.6096 68.2595 52.9859C61.3473 59.8954 61.3486 71.0965 68.2621 78.0073C75.176 84.9182 86.3847 84.9199 93.2973 78.0073C99.1447 72.1626 100.039 63.2602 95.9863 56.4603L97.9529 54.5267L96.791 53.365L94.3769 55.738L93.8989 56.2077L94.2642 56.7708C96.8695 60.7816 97.5043 65.6864 96.1649 70.1301C94.6913 70.0262 93.3882 68.8311 92.9899 67.1419C92.7231 66.0083 92.8577 64.7859 93.3993 63.8762C89.9255 65.3082 88.8776 67.8701 89.7243 71.7699C86.3842 72.2397 86.7413 67.9848 84.6156 66.6749C84.4621 70.2652 80.3002 72.7279 78.197 70.2099C76.1272 67.7325 78.5415 64.2546 81.6247 64.8977C78.5809 62.3786 75.8503 62.6097 73.0526 65.3043C73.4894 62.7998 74.4425 61.1772 76.1809 60.27C70.5016 60.6837 66.4291 64.5791 65.1367 69.1798C63.9026 63.9534 65.3285 58.2362 69.4187 54.1478C71.7493 51.8187 74.6104 50.354 77.6089 49.7533C77.465 49.9326 77.3619 50.1334 77.3041 50.3492C76.8456 52.0607 79.4358 54.2401 83.0885 55.2189C86.7412 56.1976 90.0731 55.6038 90.5317 53.8923C90.6681 53.3829 90.5313 52.8312 90.1802 52.2828L90.5482 51.901L92.891 49.4647L91.7264 48.3001L89.8094 50.2944C87.0292 48.6427 83.8972 47.8139 80.7676 47.8115L80.7675 47.8114ZM83.3849 58.3719C81.6456 58.3991 79.5777 59.3246 77.5566 61.4041C82.0985 60.0229 85.7814 60.4701 87.4965 65.1148C88.4545 61.1099 86.5076 58.4246 83.5525 58.3719C83.4967 58.371 83.4408 58.371 83.385 58.3719H83.3849Z" fill="#666666"/>
<path d="M66.3864 121H63.8664L58.1604 112.378V121H55.6404V108.418H58.1604L63.8664 117.058V108.418H66.3864V121ZM73.3048 121.162C72.3448 121.162 71.4808 120.952 70.7128 120.532C69.9448 120.1 69.3388 119.494 68.8948 118.714C68.4628 117.934 68.2468 117.034 68.2468 116.014C68.2468 114.994 68.4688 114.094 68.9128 113.314C69.3688 112.534 69.9868 111.934 70.7668 111.514C71.5468 111.082 72.4168 110.866 73.3768 110.866C74.3368 110.866 75.2068 111.082 75.9868 111.514C76.7668 111.934 77.3788 112.534 77.8228 113.314C78.2788 114.094 78.5068 114.994 78.5068 116.014C78.5068 117.034 78.2728 117.934 77.8048 118.714C77.3488 119.494 76.7248 120.1 75.9328 120.532C75.1528 120.952 74.2768 121.162 73.3048 121.162ZM73.3048 118.966C73.7608 118.966 74.1868 118.858 74.5828 118.642C74.9908 118.414 75.3148 118.078 75.5548 117.634C75.7948 117.19 75.9148 116.65 75.9148 116.014C75.9148 115.066 75.6628 114.34 75.1588 113.836C74.6668 113.32 74.0608 113.062 73.3408 113.062C72.6208 113.062 72.0148 113.32 71.5228 113.836C71.0428 114.34 70.8028 115.066 70.8028 116.014C70.8028 116.962 71.0368 117.694 71.5048 118.21C71.9848 118.714 72.5848 118.966 73.3048 118.966ZM88.9823 121.126C88.1063 121.126 87.3143 120.976 86.6063 120.676C85.9103 120.376 85.3583 119.944 84.9503 119.38C84.5423 118.816 84.3323 118.15 84.3203 117.382H87.0203C87.0563 117.898 87.2363 118.306 87.5603 118.606C87.8963 118.906 88.3523 119.056 88.9283 119.056C89.5163 119.056 89.9783 118.918 90.3143 118.642C90.6503 118.354 90.8183 117.982 90.8183 117.526C90.8183 117.154 90.7043 116.848 90.4763 116.608C90.2483 116.368 89.9603 116.182 89.6123 116.05C89.2763 115.906 88.8083 115.75 88.2083 115.582C87.3923 115.342 86.7263 115.108 86.2103 114.88C85.7063 114.64 85.2683 114.286 84.8963 113.818C84.5363 113.338 84.3563 112.702 84.3563 111.91C84.3563 111.166 84.5423 110.518 84.9143 109.966C85.2863 109.414 85.8083 108.994 86.4803 108.706C87.1523 108.406 87.9203 108.256 88.7843 108.256C90.0803 108.256 91.1303 108.574 91.9343 109.21C92.7503 109.834 93.2003 110.71 93.2843 111.838H90.5123C90.4883 111.406 90.3023 111.052 89.9543 110.776C89.6183 110.488 89.1683 110.344 88.6043 110.344C88.1123 110.344 87.7163 110.47 87.4163 110.722C87.1283 110.974 86.9843 111.34 86.9843 111.82C86.9843 112.156 87.0923 112.438 87.3083 112.666C87.5363 112.882 87.8123 113.062 88.1363 113.206C88.4723 113.338 88.9403 113.494 89.5403 113.674C90.3563 113.914 91.0223 114.154 91.5383 114.394C92.0543 114.634 92.4983 114.994 92.8703 115.474C93.2423 115.954 93.4283 116.584 93.4283 117.364C93.4283 118.036 93.2543 118.66 92.9063 119.236C92.5583 119.812 92.0483 120.274 91.3763 120.622C90.7043 120.958 89.9063 121.126 88.9823 121.126ZM98.1331 119.002H102.273V121H95.6131V108.436H98.1331V119.002ZM108.213 121.126C107.337 121.126 106.545 120.976 105.837 120.676C105.141 120.376 104.589 119.944 104.181 119.38C103.773 118.816 103.563 118.15 103.551 117.382H106.251C106.287 117.898 106.467 118.306 106.791 118.606C107.127 118.906 107.583 119.056 108.159 119.056C108.747 119.056 109.209 118.918 109.545 118.642C109.881 118.354 110.049 117.982 110.049 117.526C110.049 117.154 109.935 116.848 109.707 116.608C109.479 116.368 109.191 116.182 108.843 116.05C108.507 115.906 108.039 115.75 107.439 115.582C106.623 115.342 105.957 115.108 105.441 114.88C104.937 114.64 104.499 114.286 104.127 113.818C103.767 113.338 103.587 112.702 103.587 111.91C103.587 111.166 103.773 110.518 104.145 109.966C104.517 109.414 105.039 108.994 105.711 108.706C106.383 108.406 107.151 108.256 108.015 108.256C109.311 108.256 110.361 108.574 111.165 109.21C111.981 109.834 112.431 110.71 112.515 111.838H109.743C109.719 111.406 109.533 111.052 109.185 110.776C108.849 110.488 108.399 110.344 107.835 110.344C107.343 110.344 106.947 110.47 106.647 110.722C106.359 110.974 106.215 111.34 106.215 111.82C106.215 112.156 106.323 112.438 106.539 112.666C106.767 112.882 107.043 113.062 107.367 113.206C107.703 113.338 108.171 113.494 108.771 113.674C109.587 113.914 110.253 114.154 110.769 114.394C111.285 114.634 111.729 114.994 112.101 115.474C112.473 115.954 112.659 116.584 112.659 117.364C112.659 118.036 112.485 118.66 112.137 119.236C111.789 119.812 111.279 120.274 110.607 120.622C109.935 120.958 109.137 121.126 108.213 121.126Z" fill="#C16F59"/>
</svg>
